<svg width="24" height="24" viewBox="0 0 24 24" fill="none" xmlns="http://www.w3.org/2000/svg">
<path d="M12 1.54651C6.23626 1.54651 1.54651 6.23626 1.54651 12C1.54651 17.7645 6.23551 22.4535 12 22.4535C17.7645 22.4535 22.4535 17.7645 22.4535 12C22.4535 6.23626 17.7645 1.54651 12 1.54651ZM17.0445 10.2758L11.0393 16.3463C11.0378 16.3478 11.0348 16.3485 11.0333 16.3508C11.031 16.3523 11.031 16.3553 11.0288 16.3568C10.9808 16.4033 10.9215 16.4318 10.866 16.4633C10.8383 16.479 10.8158 16.503 10.7865 16.5143C10.6965 16.5503 10.6013 16.569 10.506 16.569C10.41 16.569 10.3133 16.5503 10.2225 16.5128C10.1925 16.5 10.1685 16.4745 10.14 16.4588C10.0845 16.4273 10.0268 16.3995 9.97876 16.3523C9.97726 16.3508 9.97651 16.3478 9.97501 16.3463C9.97351 16.344 9.97051 16.344 9.96901 16.3418L7.01551 13.3065C6.72676 13.0095 6.73351 12.5348 7.03051 12.246C7.32751 11.958 7.80151 11.9633 8.09101 12.261L10.5113 14.748L15.9788 9.22051C16.2698 8.92576 16.7453 8.92276 17.0393 9.21451C17.3325 9.50626 17.3355 9.98101 17.0445 10.2758Z" fill="#4987FC"/>
</svg>
