<svg width="24" height="24" viewBox="0 0 24 24" fill="none" xmlns="http://www.w3.org/2000/svg">
<g clip-path="url(#clip0_179_218)">
<path fill-rule="evenodd" clip-rule="evenodd" d="M14.8961 3.13208C15.4484 2.17549 16.6716 1.84774 17.6282 2.40002C18.5847 2.95231 18.9125 4.17549 18.3602 5.13208L17.3602 6.86413L20.8243 8.86413C21.7809 9.41641 22.1086 10.6396 21.5564 11.5962C21.0041 12.5528 19.7809 12.8805 18.8243 12.3282L13.6282 9.32823L8.432 6.32823C7.47542 5.77594 7.14767 4.55276 7.69995 3.59618C8.25224 2.63959 9.47542 2.31184 10.432 2.86413L13.8961 4.86413L14.8961 3.13208ZM6.84965 8.42585C7.479 7.70973 8.52632 7.53738 9.35195 8.01406L16.9044 12.3745C17.73 12.8511 18.1044 13.8443 17.7989 14.7474L15.8381 20.5436C15.4337 21.7391 14.0366 22.2658 12.9436 21.6347L12.0253 21.1045C12.0389 21.081 12.0506 21.0561 12.0605 21.0299L14.1944 15.3338C14.2913 15.0752 14.1602 14.787 13.9016 14.6901C13.643 14.5933 13.3549 14.7243 13.258 14.9829L11.1533 20.6011L8.56116 19.1045L11.5612 13.9084C11.6992 13.6692 11.6173 13.3634 11.3781 13.2253C11.139 13.0873 10.8332 13.1692 10.6951 13.4084L7.69513 18.6045L5.10303 17.108L8.91609 12.4761C9.0916 12.2629 9.06105 11.9478 8.84786 11.7723C8.63466 11.5968 8.31956 11.6274 8.14405 11.8406L4.27802 16.5367C4.26023 16.5583 4.24455 16.581 4.23097 16.6045L3.31272 16.0743C2.21972 15.4433 1.97727 13.97 2.81042 13.022L6.84965 8.42585Z" fill="#C2C2C2"/>
</g>
<defs>
<clipPath id="clip0_179_218">
<rect width="24" height="24" fill="white"/>
</clipPath>
</defs>
</svg>
