<svg width="24" height="24" viewBox="0 0 24 24" fill="none" xmlns="http://www.w3.org/2000/svg">
<path d="M6 18H11L9.348 20.6432C8.95633 21.2699 8.04367 21.2699 7.652 20.6432L6 18Z" fill="white"/>
<path fill-rule="evenodd" clip-rule="evenodd" d="M2 6C2 4.34315 3.34315 3 5 3H19C20.6569 3 22 4.34315 22 6V15C22 16.6569 20.6569 18 19 18H5C3.34315 18 2 16.6569 2 15V6ZM11 7C11 6.44772 11.4477 6 12 6C12.5523 6 13 6.44772 13 7V11C13 11.5523 12.5523 12 12 12C11.4477 12 11 11.5523 11 11V7ZM12 13C11.4477 13 11 13.4477 11 14C11 14.5523 11.4477 15 12 15C12.5523 15 13 14.5523 13 14C13 13.4477 12.5523 13 12 13Z" fill="white"/>
</svg>
