<svg width="24" height="24" viewBox="0 0 24 24" fill="none" xmlns="http://www.w3.org/2000/svg">
<path fill-rule="evenodd" clip-rule="evenodd" d="M6.5 3C5.39543 3 4.5 3.89543 4.5 5V19C4.5 20.1046 5.39543 21 6.5 21H12.4996C11.8719 20.1643 11.5 19.1256 11.5 18C11.5 15.2386 13.7386 13 16.5 13C17.6256 13 18.6643 13.3719 19.5 13.9996V5C19.5 3.89543 18.6046 3 17.5 3H6.5ZM6.5 6.5C6.5 6.22386 6.72386 6 7 6H17C17.2761 6 17.5 6.22386 17.5 6.5C17.5 6.77614 17.2761 7 17 7H7C6.72386 7 6.5 6.77614 6.5 6.5ZM7 9C6.72386 9 6.5 9.22386 6.5 9.5C6.5 9.77614 6.72386 10 7 10H14C14.2761 10 14.5 9.77614 14.5 9.5C14.5 9.22386 14.2761 9 14 9H7Z" fill="#C2C2C2"/>
<path fill-rule="evenodd" clip-rule="evenodd" d="M16.5 22C18.7091 22 20.5 20.2091 20.5 18C20.5 15.7909 18.7091 14 16.5 14C14.2909 14 12.5 15.7909 12.5 18C12.5 20.2091 14.2909 22 16.5 22ZM17.1464 19.3536C17.3417 19.5488 17.6583 19.5488 17.8536 19.3536C18.0488 19.1583 18.0488 18.8417 17.8536 18.6464L17 17.7929V15.5C17 15.2239 16.7761 15 16.5 15C16.2239 15 16 15.2239 16 15.5V18C16 18.1326 16.0527 18.2598 16.1464 18.3536L17.1464 19.3536Z" fill="#C2C2C2"/>
</svg>
