<svg width="32" height="32" viewBox="0 0 32 32" fill="none" xmlns="http://www.w3.org/2000/svg">
<g clip-path="url(#clip0_432_542)">
<path d="M19.8721 10.0665C21.2747 9.78274 22.5127 11.0208 22.229 12.4233L21.6607 15.2323C21.5654 15.7034 21.643 16.1931 21.8792 16.6117L23.2877 19.1076C23.9909 20.3538 23.196 21.9138 21.7745 22.0774L18.9274 22.405C18.4499 22.46 18.0081 22.685 17.683 23.0391L15.7445 25.1499C14.7766 26.2038 13.0473 25.9299 12.4524 24.6284L11.2611 22.0219C11.0612 21.5848 10.7107 21.2342 10.2735 21.0344L7.66698 19.843C6.36555 19.2482 6.09166 17.5189 7.14557 16.551L9.25635 14.6125C9.61038 14.2873 9.83547 13.8456 9.89042 13.368L10.218 10.521C10.3816 9.0994 11.9416 8.30453 13.1878 9.00777L15.6837 10.4162C16.1023 10.6524 16.592 10.73 17.0632 10.6347L19.8721 10.0665Z" fill="#FAE387"/>
<rect x="11.1985" y="19" width="2.2703" height="11" rx="1.13515" transform="rotate(45 11.1985 19)" fill="#FAE387"/>
<rect x="16.4203" y="3" width="2" height="4" rx="1" fill="#FAE387"/>
<rect x="25.2487" y="5" width="2" height="4" rx="1" transform="rotate(45 25.2487 5)" fill="#FAE387"/>
<rect x="29.4203" y="13" width="2" height="4" rx="1" transform="rotate(90 29.4203 13)" fill="#FAE387"/>
</g>
<defs>
<clipPath id="clip0_432_542">
<rect width="32" height="32" fill="white"/>
</clipPath>
</defs>
</svg>
