<!--?xml version="1.0" encoding="utf-8"?-->
<!-- Generator: Adobe Illustrator 18.1.1, SVG Export Plug-In . SVG Version: 6.00 Build 0)  -->

<svg version="1.1" id="_x32_" xmlns="http://www.w3.org/2000/svg" xmlns:xlink="http://www.w3.org/1999/xlink" x="0px" y="0px" viewBox="0 0 512 512" style="width: 256px; height: 256px; opacity: 1;" xml:space="preserve">
<style type="text/css">
	.st0{fill:#4B4B4B;}
</style>
<g>
	<path class="st0" d="M255.996,0.005C114.615,0.005,0,114.62,0,256c0,141.38,114.615,255.996,255.996,255.996
		C397.39,511.995,512,397.38,512,256C512,114.62,397.39,0.005,255.996,0.005z M308.86,377.124l-87.064,45.899l1.878-35.924
		c-23.849-5.799-45.64-18.064-63.186-35.609c-25.489-25.44-39.525-59.346-39.525-95.49c0-18.633,3.746-36.714,11.132-53.741
		l1.435-3.299l31.959,13.879l-1.426,3.298c-5.466,12.633-8.238,26.047-8.238,39.863c0,26.766,10.422,51.926,29.344,70.84
		c11.374,11.378,25.261,19.835,40.381,24.625l1.487-28.072l90.876,48.916L308.86,377.124z M379.892,309.733l-1.43,3.298
		l-31.963-13.879l1.434-3.298c5.461-12.589,8.233-25.994,8.233-39.855c0-26.766-10.422-51.925-29.344-70.848
		c-11.427-11.387-25.314-19.844-40.38-24.625l-1.488,28.072l-90.95-48.925l9.194-4.816l17.146-9.08l69.852-36.801l-1.877,35.871
		c23.87,5.842,45.662,18.133,63.184,35.652c25.533,25.538,39.569,59.452,39.526,95.499
		C391.029,274.668,387.283,292.749,379.892,309.733z" style="fill: rgb(255, 255, 255);"></path>
</g>
</svg>
