<svg width="20" height="22" viewBox="0 0 20 22" fill="none" xmlns="http://www.w3.org/2000/svg">
<path d="M19.556 13.454L18.919 13.0858C18.6123 12.9069 18.4405 12.565 18.4881 12.2099C18.5463 11.8127 18.5753 11.4103 18.5753 10.9947C18.5753 10.5792 18.5436 10.1767 18.4881 9.77956C18.4405 9.42447 18.6071 9.08517 19.0036 8.85634L19.5587 8.53808C19.9288 8.32766 20.09 7.88577 19.9499 7.4886C19.7596 6.94677 19.519 6.42598 19.2415 5.92623C19.1754 5.80261 19.1014 5.67635 19.0247 5.55536C18.7313 5.06876 18.3956 4.6111 18.0255 4.18236C17.7479 3.85884 17.2827 3.7852 16.8333 4.04296L16.2702 4.36648C15.9636 4.54534 15.575 4.51904 15.2948 4.30073C14.6577 3.79835 13.9493 3.3854 13.1801 3.08029C12.8496 2.94877 12.6382 2.62525 12.6382 2.27543V1.53632C12.6382 1.11285 12.3342 0.749875 11.9165 0.670967C11.2926 0.557866 10.6556 0.5 10 0.5C9.34443 0.5 8.70736 0.557866 8.0835 0.670967C7.66584 0.749875 7.36184 1.11285 7.36184 1.53632V2.27543C7.36184 2.62525 7.15037 2.94877 6.81994 3.08029C6.0507 3.3854 5.34225 3.79835 4.70518 4.30073C4.42498 4.51904 4.03639 4.54534 3.72975 4.36648L3.0874 3.99562C2.71731 3.7852 2.25207 3.85884 1.97451 4.18499C1.60443 4.61373 1.27135 5.07402 0.975286 5.55799C0.901269 5.68161 0.82461 5.80787 0.758523 5.92886C0.480962 6.42861 0.240409 6.9494 0.0500807 7.49123C-0.0900218 7.8884 0.0712283 8.33029 0.44131 8.54071L1.07838 8.90894C1.38502 9.0878 1.55684 9.42973 1.50926 9.78482C1.45111 10.182 1.42203 10.5844 1.42203 11C1.42203 11.4156 1.45375 11.818 1.50926 12.2152C1.55684 12.5703 1.38502 12.9096 1.07838 13.0911L0.44131 13.4593C0.0712283 13.6697 -0.0900218 14.1116 0.0500807 14.5088C0.240409 15.0506 0.480962 15.5714 0.758523 16.0711C0.82461 16.1948 0.898626 16.321 0.975286 16.442C1.26871 16.9286 1.60443 17.3863 1.97451 17.815C2.25207 18.1385 2.71731 18.2122 3.0874 18.0044L3.72975 17.6335C4.03639 17.4547 4.42498 17.481 4.70518 17.6993C5.34225 18.2017 6.0507 18.6146 6.81994 18.9197C7.15037 19.0512 7.36184 19.3747 7.36184 19.7246V20.4637C7.36184 20.8871 7.66584 21.2501 8.0835 21.329C8.70736 21.4421 9.34443 21.5 10 21.5C10.6556 21.5 11.2926 21.4421 11.9165 21.329C12.3342 21.2501 12.6382 20.8871 12.6382 20.4637V19.7246C12.6382 19.3747 12.8496 19.0512 13.1801 18.9197C13.9493 18.6146 14.6577 18.2017 15.2948 17.6993C15.575 17.481 15.9636 17.4547 16.2702 17.6335L16.9126 18.0044C17.2827 18.2148 17.7479 18.1412 18.0255 17.815C18.3956 17.3863 18.7286 16.926 19.0247 16.442C19.0987 16.3184 19.1754 16.1921 19.2415 16.0711C19.519 15.5714 19.7596 15.0506 19.9499 14.5088C20.0874 14.1063 19.9261 13.6645 19.556 13.454ZM10 14.9322C7.81387 14.9322 6.04277 13.17 6.04277 10.9947C6.04277 8.81951 7.81387 7.05724 10 7.05724C12.1861 7.05724 13.9572 8.81951 13.9572 10.9947C13.9572 13.17 12.1861 14.9322 10 14.9322Z" fill="white"/>
</svg>
