<svg width="24" height="24" viewBox="0 0 24 24" fill="none" xmlns="http://www.w3.org/2000/svg">
<path fill-rule="evenodd" clip-rule="evenodd" d="M19.0556 16.2049C19.9903 16.3726 21 16.5538 21 18C21 22.5 2 25 2 12C2 6.47715 6.47715 2 12 2C17.5228 2 21 4 21 8.5C21 10.6333 19.8374 11.8023 18.8523 12.7929C18.1282 13.521 17.5 14.1527 17.5 15C17.5 15.9258 18.25 16.0604 19.0556 16.2049ZM15.5 8C14.6716 8 14 7.32843 14 6.5C14 5.67157 14.6716 5 15.5 5C16.3284 5 17 5.67157 17 6.5C17 7.32843 16.3284 8 15.5 8ZM9 6.5C9 7.32843 9.67157 8 10.5 8C11.3284 8 12 7.32843 12 6.5C12 5.67157 11.3284 5 10.5 5C9.67157 5 9 5.67157 9 6.5ZM6.5 11C5.67157 11 5 10.3284 5 9.5C5 8.67157 5.67157 8 6.5 8C7.32843 8 8 8.67157 8 9.5C8 10.3284 7.32843 11 6.5 11ZM5 14.5C5 15.3284 5.67157 16 6.5 16C7.32843 16 8 15.3284 8 14.5C8 13.6716 7.32843 13 6.5 13C5.67157 13 5 13.6716 5 14.5ZM11.5 20C10.1193 20 9 18.8807 9 17.5C9 16.1193 10.1193 15 11.5 15C12.8807 15 14 16.1193 14 17.5C14 18.8807 12.8807 20 11.5 20Z" fill="white"/>
</svg>
