<svg xmlns="http://www.w3.org/2000/svg" viewBox="0 0 51 51">
  <path d="M1.17374 40.438C0.920158 41.0455 0.788964 41.6972 0.787668 42.3556C0.787668 45.0847 3.09359 47.5748 6.90525 49.482C7.25319 49.6512 7.63267 49.7456 8.01927 49.7593C8.40589 49.7729 8.79108 49.7054 9.15007 49.5612C9.50907 49.417 9.8339 49.1992 10.1037 48.9218C10.3736 48.6444 10.5824 48.3136 10.7169 47.9507L14.9639 37.73C15.7076 35.9512 16.2948 34.1109 16.7187 32.2298C8.8497 33.5505 2.91813 36.5675 1.27554 40.2588L1.20883 40.4169L1.17374 40.438ZM16.7052 17.533C16.2814 15.652 15.6941 13.8116 14.9503 12.0328L10.7034 1.80865C10.5682 1.44582 10.3587 1.11534 10.0884 0.838345C9.81807 0.561352 9.49284 0.343933 9.13362 0.200047C8.77438 0.05616 8.38911 -0.0108795 8.00244 0.00294113C7.61577 0.0169029 7.23626 0.111584 6.88827 0.280903C3.08013 2.18447 0.77417 4.67824 0.77417 7.40712C0.775742 8.06561 0.906925 8.71717 1.16024 9.32493V9.34594L1.22695 9.50406C2.90464 13.1954 8.83621 16.2089 16.7052 17.533ZM44.4138 0.280903C48.2255 2.18447 50.5314 4.67824 50.5314 7.40712C50.5214 8.06685 50.3831 8.71814 50.1242 9.32493L50.0681 9.45486C48.4396 13.1708 42.4939 16.2018 34.6004 17.533C35.0242 15.652 35.6113 13.8116 36.3552 12.0328L40.6021 1.80865C40.7364 1.44569 40.9453 1.11478 41.2152 0.837513C41.4851 0.560246 41.8101 0.342552 42.1692 0.198662C42.5284 0.0547752 42.9136 -0.0122643 43.3003 0.00183487C43.6869 0.015934 44.0661 0.111031 44.4138 0.280903ZM34.6246 32.2298C35.0405 34.1093 35.6206 35.9487 36.3584 37.7265L40.6054 47.9507C40.7397 48.3136 40.9487 48.6444 41.2185 48.9218C41.4883 49.1992 41.8131 49.417 42.1722 49.5612C42.5312 49.7054 42.9164 49.7729 43.303 49.7593C43.6896 49.7456 44.069 49.6512 44.4169 49.482C48.2286 47.5748 50.5346 45.0847 50.5346 42.3556C50.5315 41.6974 50.4005 41.046 50.1485 40.438L50.0924 40.308C48.4708 36.5921 42.5041 33.5574 34.6246 32.2298ZM34.3566 19.7084C39.9443 18.848 44.5876 17.1727 47.7921 14.9845L46.8831 17.1656C44.8472 22.1033 44.8472 27.6467 46.8831 32.5844L47.7851 34.7584C44.5771 32.5703 39.9336 30.9126 34.3531 30.0415L34.2056 30.0204C31.3759 29.5919 28.5177 29.3794 25.6557 29.3847C22.8008 29.3804 19.9497 29.593 17.1269 30.0204L16.9795 30.0415C11.3954 30.8985 6.75195 32.5739 3.54398 34.762L4.44949 32.5844C6.48536 27.6467 6.48536 22.1033 4.44949 17.1656L3.54398 14.9845C6.7379 17.1832 11.3814 18.848 16.9654 19.7084L17.1129 19.7296C22.7805 20.5725 28.5415 20.5725 34.2092 19.7296L34.3566 19.7084Z" fill="#594CE9" style="translate: none; rotate: none; scale: none; transform-origin: 0px 0px;" data-svg-origin="0.7741699814796448 -0.000005409121513366699" transform="matrix(1,0,0,1,0,0)"></path>
</svg>