<svg width="107" height="32" viewBox="0 0 107 32" fill="none" xmlns="http://www.w3.org/2000/svg">
<path d="M86.0512 26.8178H21.4L26.5567 32L86.0512 26.8178Z" fill="#BF0000"/>
<path d="M27.3946 5.82997V6.6073C26.1699 5.82997 25.1386 5.37653 23.656 5.37653C19.144 5.37653 15.6633 9.52227 15.6633 14.6397C15.6633 19.7571 19.0795 23.9028 23.656 23.9028C25.1386 23.9028 26.2344 23.4494 27.3946 22.6721V23.4494H31.391V5.82997H27.3946ZM23.5916 19.6923C21.3356 19.6923 19.7241 17.4899 19.7241 14.7045C19.7241 11.919 21.3356 9.71661 23.5916 9.71661C25.8476 9.71661 27.3946 11.919 27.3946 14.7045C27.4591 17.4899 25.8476 19.6923 23.5916 19.6923Z" fill="#BF0000"/>
<path d="M59.3012 5.82996V16.1943C59.3012 18.1376 57.9476 19.7571 56.0138 19.7571C54.0801 19.7571 52.7265 18.1376 52.7265 16.1943V5.82996H48.7301V16.1943C48.7301 20.4696 51.6307 23.9028 55.8849 23.9028C57.8187 23.9028 59.3012 22.8016 59.3012 22.8016V23.4494H63.2976V5.82996H59.3012Z" fill="#BF0000"/>
<path d="M96.4289 23.5142V13.1498C96.4289 11.2065 97.7825 9.58709 99.7162 9.58709C101.65 9.58709 103.004 11.2065 103.004 13.1498V23.5142H107V13.1498C107 8.87454 104.099 5.44134 99.8451 5.44134C97.9114 5.44134 96.4289 6.54256 96.4289 6.54256V5.83001H92.4325V23.4494H96.4289V23.5142Z" fill="#BF0000"/>
<path d="M4.18976 23.5142V16.6478H7.09036L12.1825 23.4494H17.4036L11.2157 15.2227C13.1494 13.8624 14.3741 11.5951 14.3741 9.00406C14.3741 4.79353 10.9578 1.42511 6.83253 1.42511H0V23.4494H4.18976V23.5142ZM4.18976 5.63564H6.89699C8.76626 5.63564 10.3133 7.19029 10.3133 9.06883C10.3133 10.9474 8.76626 12.502 6.89699 12.502H4.18976V5.63564Z" fill="#BF0000"/>
<path d="M73.9976 19.3037C73.6108 19.5628 73.1596 19.7571 72.644 19.7571C71.9994 19.7571 70.7747 19.2389 70.7747 17.6194V10.0405H74.1909V5.82997H70.7747V1.42511H66.7783V5.82997H64.6512V10.0405H66.7783V17.6194C66.7783 21.5709 69.7434 23.9028 72.7084 23.9028C73.8042 23.9028 75.3512 23.5142 76.5759 22.8016L73.9976 19.3037Z" fill="#BF0000"/>
<path d="M41.253 14.1215L48.0855 5.82996H42.5422L37.7078 11.9838V0H33.647V23.5142H37.7078V16.2591L43.6379 23.5142H49.1813L41.253 14.1215Z" fill="#BF0000"/>
<path d="M83.2151 5.37653C78.5741 5.37653 75.2867 9.4575 75.2867 14.6397C75.2867 20.081 79.412 23.9028 83.6018 23.9028C85.7289 23.9028 88.3717 23.1903 90.6277 19.9514L87.0825 17.8786C84.3753 21.8947 79.7988 19.8866 79.2831 15.8057H90.7566C91.788 9.58705 87.7271 5.37653 83.2151 5.37653ZM86.6958 12.3725H79.541C80.3789 8.29151 85.9223 8.0324 86.6958 12.3725Z" fill="#BF0000"/>
</svg>
