<svg xmlns="http://www.w3.org/2000/svg" viewBox="0 0 150 100">
  <g>
    <path fill="#ee7625" d="M42.3,28.21C18.97,28.21,0,47.19,0,70.51h7.06c0-19.43,15.81-35.24,35.24-35.24h0c19.43,0,35.24,15.81,35.24,35.24h7.06c0-23.32-18.97-42.3-42.3-42.3Z"/>
    <path fill="#ee7625" d="M42.3,42.22h0c-15.6,0-28.3,12.69-28.3,28.3h7.06c0-11.71,9.53-21.24,21.24-21.24h0c11.71,0,21.24,9.53,21.24,21.24h7.06c0-15.6-12.69-28.3-28.3-28.3Z"/>
    <path fill="#ee7625" d="M42.3,56.34h0c-7.82,0-14.17,6.36-14.17,14.18h7.06c0-3.92,3.19-7.12,7.12-7.12h0c3.92,0,7.12,3.19,7.12,7.12h7.06c0-7.82-6.36-14.18-14.17-14.18Z"/>
  </g>
  <path fill="#182640" d="M112.17,42.98c-2.41-10.52-10.69-18.81-21.2-21.24C88.01,9.32,76.84.04,63.53,0h0s-.03,0-.05,0c-.01,0-.03,0-.04,0h0c-15.56.05-28.21,12.72-28.21,28.3v.52c2.3-.39,4.65-.6,7.06-.6h0c.05-11.66,9.52-21.13,21.18-21.15,11.06.02,20.16,8.54,21.11,19.37v1.64s.05,0,.08,0c0,.08,0,.15,0,.23h3.02c9.34,1.37,16.72,8.85,17.95,18.24v2.74c.06,0,.12,0,.19,0,0,0,0,.01,0,.02h.89c8.76.44,16.13,6.21,18.94,14.12h-41.67c.39,2.31.61,4.67.61,7.09h49.35c0-13.36-9.3-24.57-21.77-27.53Z"/>
</svg>