<svg width="678" height="1024" viewBox="0 0 678 1024" fill="none" xmlns="http://www.w3.org/2000/svg">
<path fill-rule="evenodd" clip-rule="evenodd" d="M342.444 322.924C323.57 325.117 309.176 340.445 307.838 359.775C307.261 368.104 307.442 368.669 326.321 417.25C369.273 527.78 379.679 554.382 381.429 558.126C385.669 567.193 391.631 575.723 399.08 583.379C404.796 589.254 408.566 592.413 414.942 596.672C426.148 604.156 431.709 606.225 475.314 619.136C517.79 631.713 540.996 640.072 560.993 649.997C586.899 662.855 604.974 677.481 616.407 694.835C624.61 707.287 631.875 729.616 635.036 752.093C636.272 760.879 636.28 780.301 635.051 788.244C632.384 805.483 627.057 819.929 618.908 832.018C614.574 838.447 616.082 837.371 622.383 829.536C640.215 807.365 658.38 769.472 667.649 735.11C678.866 693.523 680.392 648.866 672.04 606.599C655.775 524.29 603.814 453.257 530.632 413.289C526.034 410.777 508.52 401.597 484.776 389.252C481.173 387.378 476.26 384.813 473.858 383.552C471.456 382.29 466.543 379.725 462.94 377.852C459.337 375.979 448.965 370.575 439.891 365.844C430.817 361.112 420.664 355.818 417.328 354.079C407.159 348.777 400.336 345.215 395.249 342.552C371.721 330.235 361.762 325.256 358.923 324.392C355.945 323.486 348.38 322.323 346.482 322.479C346.082 322.512 344.265 322.712 342.444 322.924Z" fill="url(#paint0_radial_2_17)"/>
<path d="M393.737 735.544C392.433 736.316 390.603 737.434 389.669 738.027C388.734 738.621 386.66 739.91 385.059 740.893C379.182 744.5 363.552 754.131 350.121 762.422C341.294 767.871 339.984 768.683 328.771 775.642C324.767 778.126 320.509 780.744 319.308 781.46C318.107 782.176 312.976 785.336 307.905 788.482C302.834 791.627 293.991 797.087 288.253 800.614C282.515 804.14 272.252 810.471 265.447 814.682C258.641 818.892 249.688 824.413 245.552 826.95C241.415 829.486 237.594 831.936 237.06 832.394C236.267 833.074 199.475 855.865 181.014 867.112C166.993 875.653 150.773 881.366 134.169 883.61C126.439 884.654 111.811 884.658 104.103 883.616C83.2021 880.794 63.9476 872.999 47.4576 860.687C40.9893 855.857 28.8117 843.689 24.1563 837.403C13.1855 822.592 6.08829 806.705 2.41258 788.729C1.56681 784.592 0.766658 781.099 0.635158 780.965C0.291606 780.618 0.912197 786.867 2.03165 795.037C3.19575 803.534 5.67635 815.824 8.3481 826.335C29.0233 907.68 87.8556 973.842 167.5 1005.32C190.434 1014.38 213.577 1020.09 238.758 1022.89C248.22 1023.95 275.003 1024.37 284.878 1023.62C330.165 1020.19 369.597 1006.86 410.049 981.295C413.652 979.018 420.421 974.75 425.091 971.809C429.762 968.869 435.657 965.131 438.193 963.504C440.728 961.876 443.785 959.953 444.986 959.231C446.187 958.508 448.589 956.999 450.324 955.876C452.059 954.754 459.483 950.058 466.822 945.441L496.17 926.904L506.247 920.539L506.61 920.31L507.72 919.609L508.248 919.275L515.667 914.589L541.307 898.394C573.977 877.865 583.719 870.658 598.897 855.79C605.225 849.593 614.765 839.013 615.239 837.67C615.335 837.397 617.031 834.781 619.007 831.857C627.039 819.972 632.395 805.413 635.051 788.244C636.28 780.301 636.272 760.879 635.036 752.093C632.647 735.106 627.219 715.838 621.367 703.569C611.77 683.451 591.326 665.171 561.957 650.449C553.848 646.384 545.474 642.664 544.539 642.713C544.096 642.736 516.766 659.441 483.806 679.837C450.846 700.233 422.24 717.936 420.239 719.178C418.237 720.421 414.798 722.522 412.596 723.846L393.737 735.544Z" fill="url(#paint1_radial_2_17)"/>
<path d="M0.141154 637.697L0.282367 779.752L2.12098 788.001C7.87013 813.792 17.8312 832.387 35.148 849.658C43.2933 857.782 49.5219 862.68 58.3485 867.903C77.0259 878.956 97.1276 884.409 119.146 884.399C142.207 884.387 162.156 878.635 182.713 866.07C186.182 863.95 199.775 855.581 212.919 847.472L236.817 832.729V664.186V495.643L236.81 341.457C236.805 243.089 236.625 184.67 236.314 180.087C234.354 151.286 222.309 124.809 202.055 104.782C195.839 98.6357 190.528 94.5305 174.706 83.6427C166.833 78.2244 152.421 68.2988 142.68 61.586C132.939 54.8727 116.89 43.8135 107.015 37.0094C97.1402 30.2058 83.056 20.4986 75.7167 15.4385C60.4272 4.89657 59.2306 4.16335 54.6087 2.50964C48.597 0.359048 42.2263 -0.430914 36.1695 0.223193C18.5163 2.12971 4.38462 14.8756 0.711338 32.2041C0.139722 34.9001 0.0344077 70.7794 0.027129 265.516L0.0188956 495.643H0L0.141154 637.697Z" fill="url(#paint2_linear_2_17)"/>
<defs>
<radialGradient id="paint0_radial_2_17" cx="0" cy="0" r="1" gradientUnits="userSpaceOnUse" gradientTransform="translate(654.126 722.251) rotate(-130.909) scale(529.064 380.685)">
<stop stop-color="#00CACC"/>
<stop offset="1" stop-color="#048FCE"/>
</radialGradient>
<radialGradient id="paint1_radial_2_17" cx="0" cy="0" r="1" gradientUnits="userSpaceOnUse" gradientTransform="translate(88.8183 915.135) rotate(-23.1954) scale(572.26 953.69)">
<stop stop-color="#00BBEC"/>
<stop offset="1" stop-color="#2756A9"/>
</radialGradient>
<linearGradient id="paint2_linear_2_17" x1="118.409" y1="0" x2="118.409" y2="884.399" gradientUnits="userSpaceOnUse">
<stop stop-color="#00BBEC"/>
<stop offset="1" stop-color="#2756A9"/>
</linearGradient>
</defs>
</svg>
