<svg width="79" height="33" viewBox="0 0 79 33" fill="none" xmlns="http://www.w3.org/2000/svg">
<path d="M46.9434 13.1836C46.2923 13.7435 45.5632 14.1732 44.7559 14.4727C43.9486 14.7721 43.112 14.9219 42.2461 14.9219C41.582 14.9219 40.9408 14.834 40.3223 14.6582C39.7103 14.4889 39.1341 14.248 38.5938 13.9355C38.0599 13.6165 37.5716 13.2357 37.1289 12.793C36.6862 12.3503 36.3053 11.862 35.9863 11.3281C35.6738 10.7878 35.4297 10.2116 35.2539 9.59961C35.0846 8.98112 35 8.33984 35 7.67578C35 7.01172 35.0846 6.37044 35.2539 5.75195C35.4297 5.13346 35.6738 4.55729 35.9863 4.02344C36.3053 3.48307 36.6862 2.99154 37.1289 2.54883C37.5716 2.10612 38.0599 1.72852 38.5938 1.41602C39.1341 1.09701 39.7103 0.852865 40.3223 0.683594C40.9408 0.507812 41.582 0.419922 42.2461 0.419922C43.112 0.419922 43.9486 0.569661 44.7559 0.869141C45.5632 1.16211 46.2923 1.5918 46.9434 2.1582L45.459 4.59961C45.0488 4.1569 44.5638 3.81836 44.0039 3.58398C43.444 3.3431 42.8581 3.22266 42.2461 3.22266C41.6276 3.22266 41.0482 3.33984 40.5078 3.57422C39.9674 3.80859 39.4954 4.1276 39.0918 4.53125C38.6882 4.92839 38.3691 5.40039 38.1348 5.94727C37.9004 6.48763 37.7832 7.0638 37.7832 7.67578C37.7832 8.28776 37.9004 8.86393 38.1348 9.4043C38.3691 9.93815 38.6882 10.4069 39.0918 10.8105C39.4954 11.2142 39.9674 11.5332 40.5078 11.7676C41.0482 12.002 41.6276 12.1191 42.2461 12.1191C42.8581 12.1191 43.444 12.002 44.0039 11.7676C44.5638 11.5267 45.0488 11.1849 45.459 10.7422L46.9434 13.1836Z" fill="white"/>
<path d="M50.957 14.6191H48.291V0H50.957V4.61914C51.276 4.37826 51.6048 4.20898 51.9434 4.11133C52.2819 4.00716 52.627 3.95508 52.9785 3.95508C53.623 3.95508 54.2285 4.07878 54.7949 4.32617C55.3613 4.56706 55.8529 4.90234 56.2695 5.33203C56.6927 5.75521 57.0247 6.25326 57.2656 6.82617C57.513 7.39258 57.6367 7.99805 57.6367 8.64258V14.6191H54.9512V8.64258H54.9707C54.9707 8.36914 54.9186 8.11198 54.8145 7.87109C54.7103 7.6237 54.5671 7.40885 54.3848 7.22656C54.2025 7.04427 53.9909 6.90104 53.75 6.79688C53.5091 6.69271 53.252 6.64062 52.9785 6.64062C52.6986 6.64062 52.4349 6.69271 52.1875 6.79688C51.9401 6.90104 51.7253 7.04427 51.543 7.22656C51.3607 7.40885 51.2174 7.6237 51.1133 7.87109C51.0091 8.11198 50.957 8.36914 50.957 8.64258V14.6191Z" fill="white"/>
<path d="M69.668 14.6191H69.0234L67.9883 13.1836C67.7344 13.4115 67.4642 13.6263 67.1777 13.8281C66.8978 14.0234 66.6016 14.196 66.2891 14.3457C65.9766 14.4889 65.6543 14.6029 65.3223 14.6875C64.9967 14.7721 64.6647 14.8145 64.3262 14.8145C63.5905 14.8145 62.8971 14.6908 62.2461 14.4434C61.6016 14.196 61.0352 13.8379 60.5469 13.3691C60.0651 12.8939 59.6842 12.3145 59.4043 11.6309C59.1243 10.9473 58.9844 10.1693 58.9844 9.29688C58.9844 8.48307 59.1243 7.73763 59.4043 7.06055C59.6842 6.37695 60.0651 5.79102 60.5469 5.30273C61.0352 4.81445 61.6016 4.43685 62.2461 4.16992C62.8971 3.89648 63.5905 3.75977 64.3262 3.75977C64.6647 3.75977 65 3.80208 65.332 3.88672C65.6641 3.97135 65.9863 4.08854 66.2988 4.23828C66.6113 4.38802 66.9076 4.5638 67.1875 4.76562C67.474 4.96745 67.7409 5.18555 67.9883 5.41992L69.0234 4.17969H69.668V14.6191ZM66.9824 9.29688C66.9824 8.93229 66.9108 8.58073 66.7676 8.24219C66.6309 7.89714 66.4421 7.5944 66.2012 7.33398C65.9603 7.06706 65.6771 6.85547 65.3516 6.69922C65.0326 6.53646 64.6908 6.45508 64.3262 6.45508C63.9616 6.45508 63.6165 6.51693 63.291 6.64062C62.972 6.76432 62.6921 6.94661 62.4512 7.1875C62.2168 7.42839 62.0312 7.72786 61.8945 8.08594C61.7578 8.4375 61.6895 8.84115 61.6895 9.29688C61.6895 9.7526 61.7578 10.1595 61.8945 10.5176C62.0312 10.8691 62.2168 11.1654 62.4512 11.4062C62.6921 11.6471 62.972 11.8294 63.291 11.9531C63.6165 12.0768 63.9616 12.1387 64.3262 12.1387C64.6908 12.1387 65.0326 12.0605 65.3516 11.9043C65.6771 11.7415 65.9603 11.5299 66.2012 11.2695C66.4421 11.0026 66.6309 10.6999 66.7676 10.3613C66.9108 10.0163 66.9824 9.66146 66.9824 9.29688Z" fill="white"/>
<path d="M76.9531 14.6191C76.3086 14.6191 75.7031 14.4987 75.1367 14.2578C74.5703 14.0104 74.0723 13.6751 73.6426 13.252C73.2194 12.8223 72.8841 12.3242 72.6367 11.7578C72.3958 11.1914 72.2754 10.5859 72.2754 9.94141V6.83594H70.9766V4.17969H72.2754V0H74.9316V4.17969H78.9746V6.83594H74.9316V9.94141C74.9316 10.2214 74.9837 10.485 75.0879 10.7324C75.1921 10.9733 75.3353 11.1849 75.5176 11.3672C75.6999 11.5495 75.9147 11.696 76.1621 11.8066C76.4095 11.9108 76.6732 11.9629 76.9531 11.9629H78.9746V14.6191H76.9531Z" fill="white"/>
<path d="M38.5645 32.6191H35.7617V18.6152H38.5645V24.2207H44.1602V18.6152H46.9629V32.6191H44.1602V27.0234H38.5645V32.6191Z" fill="white"/>
<path d="M56.8359 31.3984C56.6211 31.5938 56.39 31.7793 56.1426 31.9551C55.9017 32.1243 55.6478 32.2741 55.3809 32.4043C55.1139 32.528 54.8372 32.6257 54.5508 32.6973C54.2708 32.7754 53.9844 32.8145 53.6914 32.8145C53.0469 32.8145 52.4414 32.7005 51.875 32.4727C51.3086 32.2448 50.8105 31.9225 50.3809 31.5059C49.9577 31.0827 49.6224 30.5716 49.375 29.9727C49.1341 29.3672 49.0137 28.6901 49.0137 27.9414V22.1602H51.6699V27.9414C51.6699 28.293 51.722 28.6087 51.8262 28.8887C51.9368 29.1621 52.0833 29.3932 52.2656 29.582C52.4479 29.7708 52.6595 29.9141 52.9004 30.0117C53.1478 30.1094 53.4115 30.1582 53.6914 30.1582C53.9648 30.1582 54.222 30.0964 54.4629 29.9727C54.7103 29.8424 54.9251 29.6732 55.1074 29.4648C55.2897 29.2565 55.4329 29.0221 55.5371 28.7617C55.6413 28.4948 55.6934 28.2214 55.6934 27.9414V22.1602H58.3594V32.6191H57.7148L56.8359 31.3984Z" fill="white"/>
<path d="M70.8691 27.2969C70.8691 28.1172 70.7292 28.8659 70.4492 29.543C70.1693 30.2201 69.7884 30.8027 69.3066 31.291C68.8249 31.7728 68.2585 32.1471 67.6074 32.4141C66.9629 32.681 66.2695 32.8145 65.5273 32.8145C64.7917 32.8145 64.0983 32.6777 63.4473 32.4043C62.8027 32.1309 62.2363 31.75 61.748 31.2617C61.2663 30.7734 60.8854 30.194 60.6055 29.5234C60.3255 28.8464 60.1855 28.1042 60.1855 27.2969V18H62.8613V22.8828C63.0046 22.7005 63.1771 22.5378 63.3789 22.3945C63.5872 22.2513 63.8086 22.1341 64.043 22.043C64.2839 21.9518 64.5312 21.8835 64.7852 21.8379C65.0391 21.7858 65.2865 21.7598 65.5273 21.7598C66.2695 21.7598 66.9629 21.8997 67.6074 22.1797C68.2585 22.4531 68.8249 22.8372 69.3066 23.332C69.7884 23.8268 70.1693 24.4128 70.4492 25.0898C70.7292 25.7604 70.8691 26.4961 70.8691 27.2969ZM68.1836 27.2969C68.1836 26.8932 68.112 26.5189 67.9688 26.1738C67.832 25.8223 67.6432 25.5195 67.4023 25.2656C67.1615 25.0117 66.8783 24.8132 66.5527 24.6699C66.2337 24.5267 65.8919 24.4551 65.5273 24.4551C65.1628 24.4551 64.8177 24.5365 64.4922 24.6992C64.1732 24.8555 63.8932 25.0671 63.6523 25.334C63.4115 25.5944 63.2227 25.8971 63.0859 26.2422C62.9492 26.5807 62.8809 26.9323 62.8809 27.2969C62.8809 27.7005 62.9492 28.0749 63.0859 28.4199C63.2227 28.765 63.4115 29.0645 63.6523 29.3184C63.8932 29.5723 64.1732 29.7741 64.4922 29.9238C64.8177 30.0671 65.1628 30.1387 65.5273 30.1387C65.8919 30.1387 66.2337 30.0671 66.5527 29.9238C66.8783 29.7741 67.1615 29.5723 67.4023 29.3184C67.6432 29.0645 67.832 28.765 67.9688 28.4199C68.112 28.0749 68.1836 27.7005 68.1836 27.2969Z" fill="white"/>
<rect y="2" width="14" height="20" rx="5" fill="#6756BD"/>
<rect x="16" y="2" width="14" height="20" rx="5" fill="#4987FC"/>
<rect y="24" width="30" height="8" rx="4" fill="#FAE387"/>
<path fill-rule="evenodd" clip-rule="evenodd" d="M5 24C5.55229 24 6 23.5523 6 23C6 22.4477 5.55229 22 5 22H9C8.44771 22 8 22.4477 8 23C8 23.5523 8.44771 24 9 24H5Z" fill="url(#paint0_linear_33_18)"/>
<path fill-rule="evenodd" clip-rule="evenodd" d="M21 24C21.5523 24 22 23.5523 22 23C22 22.4477 21.5523 22 21 22H25C24.4477 22 24 22.4477 24 23C24 23.5523 24.4477 24 25 24H21Z" fill="url(#paint1_linear_33_18)"/>
<path fill-rule="evenodd" clip-rule="evenodd" d="M14 10C14 10.5523 14.4477 11 15 11C15.5523 11 16 10.5523 16 10L16 14C16 13.4477 15.5523 13 15 13C14.4477 13 14 13.4477 14 14L14 10Z" fill="url(#paint2_linear_33_18)"/>
<defs>
<linearGradient id="paint0_linear_33_18" x1="7" y1="22" x2="7" y2="24" gradientUnits="userSpaceOnUse">
<stop stop-color="#6756BD"/>
<stop offset="1" stop-color="#FAE387"/>
</linearGradient>
<linearGradient id="paint1_linear_33_18" x1="23" y1="22" x2="23" y2="24" gradientUnits="userSpaceOnUse">
<stop stop-color="#4987FC"/>
<stop offset="1" stop-color="#FAE387"/>
</linearGradient>
<linearGradient id="paint2_linear_33_18" x1="16" y1="12" x2="14" y2="12" gradientUnits="userSpaceOnUse">
<stop stop-color="#4987FC"/>
<stop offset="1" stop-color="#6756BD"/>
</linearGradient>
</defs>
</svg>
